<svg width="22" height="22" viewBox="0 0 22 22" fill="none" xmlns="http://www.w3.org/2000/svg">
     <path
          d="M0.866585 2.46668C0.866585 1.58302 1.58293 0.866677 2.46659 0.866677H7.79992C8.68357 0.866677 9.39992 1.58302 9.39992 2.46668V7.80001C9.39992 8.68367 8.68357 9.40001 7.79992 9.40001H2.46659C1.58293 9.40001 0.866585 8.68367 0.866585 7.80001V2.46668ZM0.866585 14.2C0.866585 13.3164 1.58293 12.6 2.46659 12.6H7.79992C8.68357 12.6 9.39992 13.3164 9.39992 14.2V19.5333C9.39992 20.417 8.68357 21.1333 7.79992 21.1333H2.46659C1.58293 21.1333 0.866585 20.417 0.866585 19.5333V14.2ZM12.5999 2.46668C12.5999 1.58302 13.3163 0.866677 14.1999 0.866677H19.5333C20.4169 0.866677 21.1333 1.58302 21.1333 2.46668V7.80001C21.1333 8.68367 20.4169 9.40001 19.5333 9.40001H14.1999C13.3163 9.40001 12.5999 8.68367 12.5999 7.80001V2.46668ZM12.5999 14.2C12.5999 13.3164 13.3163 12.6 14.1999 12.6H19.5333C20.4169 12.6 21.1333 13.3164 21.1333 14.2V19.5333C21.1333 20.417 20.4169 21.1333 19.5333 21.1333H14.1999C13.3163 21.1333 12.5999 20.417 12.5999 19.5333V14.2Z"
          stroke="white" stroke-width="1.06667" />
</svg>
     