<svg width="30" height="30" viewBox="0 0 30 30" fill="none" xmlns="http://www.w3.org/2000/svg">
<path fill-rule="evenodd" clip-rule="evenodd" d="M30 15C30 19.0219 28.4171 22.674 25.8405 25.3676C23.1191 28.2122 19.2894 29.9876 15.0448 30H15H14.9552C10.7106 29.9876 6.88084 28.2122 4.15956 25.3676C1.58284 22.674 0 19.0219 0 15C0 6.71574 6.71574 0 15 0C23.2843 0 30 6.71574 30 15ZM24.0917 22.5C21.9302 19.8824 18.6599 18.2142 15 18.2142C11.3401 18.2142 8.06987 19.8824 5.90818 22.5C8.06987 25.1175 11.3401 26.7857 15 26.7857C18.6599 26.7857 21.9302 25.1175 24.0917 22.5ZM15.0003 16.0714C17.9589 16.0714 20.3574 13.6729 20.3574 10.7142C20.3574 7.75556 17.9589 5.35708 15.0003 5.35708C12.0416 5.35708 9.64311 7.75556 9.64311 10.7142C9.64311 13.6729 12.0416 16.0714 15.0003 16.0714Z" fill="white" fill-opacity="0.8"/>
</svg>
