<svg width="30" height="31" viewBox="0 0 30 31" fill="none" xmlns="http://www.w3.org/2000/svg">
<path fill-rule="evenodd" clip-rule="evenodd" d="M30 15.7935C30 19.8153 28.4171 23.4675 25.8405 26.161C23.1191 29.0057 19.2894 30.781 15.0448 30.7935H15H14.9552C10.7106 30.781 6.88084 29.0057 4.15956 26.161C1.58284 23.4675 0 19.8153 0 15.7935C0 7.50919 6.71574 0.793457 15 0.793457C23.2843 0.793457 30 7.50919 30 15.7935ZM24.0917 23.2935C21.9302 20.6759 18.6599 19.0077 15 19.0077C11.3401 19.0077 8.06987 20.6759 5.90818 23.2935C8.06987 25.911 11.3401 27.5792 15 27.5792C18.6599 27.5792 21.9302 25.911 24.0917 23.2935ZM15.0003 16.8648C17.9589 16.8648 20.3574 14.4663 20.3574 11.5077C20.3574 8.54901 17.9589 6.15054 15.0003 6.15054C12.0416 6.15054 9.64311 8.54901 9.64311 11.5077C9.64311 14.4663 12.0416 16.8648 15.0003 16.8648Z" fill="white" fill-opacity="0.8"/>
</svg>
