<svg width="12" height="12" viewBox="0 0 12 12" fill="none" xmlns="http://www.w3.org/2000/svg">
<path d="M5.79992 9.60554C5.86218 9.57365 5.93062 9.55701 5.99998 9.55701C6.06933 9.55701 6.13781 9.57365 6.20007 9.60554L8.6315 10.9483C8.70148 10.9871 8.78048 11.0047 8.85948 10.9989C8.93848 10.9932 9.01442 10.9644 9.07852 10.9158C9.14269 10.8673 9.19251 10.8008 9.22224 10.7241C9.25205 10.6474 9.26068 10.5635 9.24703 10.482L8.77773 7.61157C8.76581 7.54162 8.77083 7.46967 8.79232 7.40227C8.81382 7.33486 8.85116 7.27414 8.90082 7.22565L10.8706 5.23969C10.9288 5.18188 10.9698 5.10765 10.9886 5.02599C11.0073 4.94433 11.003 4.85876 10.976 4.77962C10.9492 4.7005 10.901 4.6312 10.8372 4.58014C10.7734 4.52908 10.6968 4.49844 10.6167 4.49195L7.91593 4.07385C7.84776 4.06596 7.78276 4.03954 7.72741 3.99721C7.67205 3.9549 7.62829 3.89815 7.60046 3.83264L6.37705 1.25171C6.34374 1.17654 6.29053 1.1129 6.22373 1.0683C6.15692 1.0237 6.07926 1 5.99998 1C5.9207 1 5.84308 1.0237 5.77628 1.0683C5.70947 1.1129 5.65627 1.17654 5.62296 1.25171L4.39954 3.83264C4.37172 3.89815 4.32795 3.9549 4.27259 3.99721C4.21724 4.03954 4.15224 4.06596 4.08407 4.07385L1.38334 4.49195C1.30322 4.49844 1.22663 4.52908 1.16284 4.58014C1.09905 4.6312 1.05079 4.7005 1.02392 4.77962C0.99705 4.85876 0.992714 4.94433 1.01144 5.02599C1.03016 5.10765 1.07115 5.18188 1.12942 5.23969L3.09919 7.22565C3.14887 7.27414 3.18616 7.33486 3.20766 7.40227C3.22916 7.46967 3.2342 7.54162 3.2223 7.61157L2.75294 10.482C2.73935 10.5635 2.74794 10.6474 2.77773 10.7241C2.80753 10.8008 2.85732 10.8673 2.92146 10.9158C2.9856 10.9644 3.0615 10.9932 3.14052 10.9989C3.21956 11.0047 3.29854 10.9871 3.36849 10.9483L5.79992 9.60554Z" stroke="white" stroke-linecap="round" stroke-linejoin="round"/>
</svg>
