<svg width="12" height="12" viewBox="0 0 12 12" fill="none" xmlns="http://www.w3.org/2000/svg">
<path fill-rule="evenodd" clip-rule="evenodd" d="M1.322 1.41925C1.26026 1.4112 1.20538 1.43006 1.1585 1.47508C1.10853 1.52305 1.07143 1.59933 1.07143 1.69022V7.69022C1.07143 7.85201 1.21355 8.03889 1.46058 8.07111C3.01253 8.27355 4.17477 8.95701 4.94525 9.58512C5.01417 9.64135 5.08004 9.69715 5.14286 9.75218V3.58086C5.10733 3.5355 5.06144 3.47903 5.00522 3.41394C4.84332 3.22653 4.59743 2.96965 4.26825 2.70131C3.60963 2.16438 2.62823 1.58964 1.322 1.41925ZM6.21429 3.58086V9.75218C6.27711 9.69715 6.34298 9.64135 6.41189 9.58512C7.18237 8.95701 8.34463 8.27355 9.89657 8.07111C10.1436 8.03889 10.2857 7.85201 10.2857 7.69022V1.69022C10.2857 1.59933 10.2486 1.52305 10.1986 1.47508C10.1517 1.43006 10.0969 1.4112 10.0352 1.41925C8.72889 1.58964 7.74751 2.16438 7.08889 2.70131C6.75971 2.96965 6.51382 3.22653 6.35193 3.41394C6.29571 3.47903 6.24981 3.5355 6.21429 3.58086ZM6.11949 11.4231C6.12112 11.4207 6.12273 11.4183 6.12433 11.4159L6.13275 11.4039C6.14097 11.3922 6.15459 11.3734 6.17361 11.3481C6.21165 11.2975 6.27111 11.2218 6.35193 11.1282C6.51382 10.9408 6.75971 10.684 7.08889 10.4156C7.74751 9.8787 8.72889 9.30389 10.0352 9.1335C10.727 9.04332 11.3571 8.47522 11.3571 7.69022V1.69022C11.3571 0.94257 10.7335 0.247653 9.89657 0.356822C8.34463 0.559264 7.18237 1.24276 6.41189 1.87086C6.10845 2.11824 5.86413 2.35829 5.67857 2.55959C5.49302 2.35829 5.2487 2.11824 4.94525 1.87086C4.17477 1.24276 3.01253 0.559264 1.46058 0.356822C0.623674 0.247653 0 0.94257 0 1.69022V7.69022C0 8.47522 0.630197 9.04332 1.322 9.1335C2.62823 9.30389 3.60963 9.8787 4.26825 10.4156C4.59743 10.684 4.84332 10.9408 5.00522 11.1282C5.08603 11.2218 5.14549 11.2975 5.18354 11.3481C5.20255 11.3734 5.21617 11.3922 5.2244 11.4039L5.23268 11.4157C5.23427 11.4181 5.23602 11.4207 5.23765 11.4231C5.27172 11.4725 5.31303 11.5147 5.35943 11.5491C5.40578 11.5835 5.45819 11.6107 5.51531 11.6291C5.51798 11.6298 5.52065 11.6307 5.52333 11.6316C5.62215 11.6615 5.7299 11.663 5.83382 11.6316C5.83649 11.6307 5.83917 11.6298 5.84183 11.6291C5.89895 11.6107 5.95137 11.5835 5.99771 11.5491C6.04411 11.5147 6.08542 11.4725 6.11949 11.4231Z" fill="white"/>
</svg>
