<svg width="30" height="30" viewBox="0 0 30 30" fill="none" xmlns="http://www.w3.org/2000/svg">
<path fill-rule="evenodd" clip-rule="evenodd" d="M12.8684 4.29089C10.5932 4.29089 8.41106 5.19469 6.8022 6.80347C5.19333 8.41225 4.28948 10.5942 4.28948 12.8694C4.28948 15.1445 5.19333 17.3265 6.8022 18.9353C8.41106 20.5441 10.5932 21.4479 12.8684 21.4479C15.1437 21.4479 17.3258 20.5441 18.9347 18.9353C20.5435 17.3265 21.4474 15.1445 21.4474 12.8694C21.4474 10.5942 20.5435 8.41225 18.9347 6.80347C17.3258 5.19469 15.1437 4.29089 12.8684 4.29089ZM2.43345e-07 12.8694C-0.000258204 10.8442 0.47751 8.84759 1.39445 7.04188C2.31139 5.23618 3.6416 3.67237 5.27691 2.47766C6.91221 1.28295 8.80643 0.491072 10.8055 0.166421C12.8046 -0.15823 14.8521 -0.00648218 16.7814 0.609323C18.7108 1.22513 20.4676 2.2876 21.9089 3.71033C23.3502 5.13306 24.4353 6.87587 25.076 8.79702C25.7167 10.7182 25.8949 12.7634 25.596 14.7664C25.2972 16.7694 24.5298 18.6736 23.3562 20.3241L29.3979 26.3655C29.7886 26.77 30.0048 27.3117 29.9999 27.874C29.995 28.4363 29.7695 28.9742 29.3718 29.3719C28.9742 29.7695 28.4362 29.995 27.8739 29.9999C27.3116 30.0048 26.7698 29.7886 26.3653 29.398L20.3257 23.3587C18.4005 24.7276 16.1356 25.5401 13.7793 25.7073C11.4229 25.8745 9.06597 25.3899 6.96676 24.3066C4.86755 23.2233 3.10706 21.583 1.8782 19.5656C0.649342 17.5482 -0.000459083 15.2315 2.43345e-07 12.8694Z" fill="white" fill-opacity="0.8"/>
</svg>
